<svg width="26" height="26" viewBox="0 0 26 26" fill="none" xmlns="http://www.w3.org/2000/svg">
<path fill-rule="evenodd" clip-rule="evenodd" d="M19.846 15.6364C21.1969 13.8948 21.8336 11.704 21.6265 9.5096C21.4194 7.31523 20.3841 5.28218 18.7312 3.82404C17.0783 2.36591 14.9321 1.59223 12.729 1.6604C10.5259 1.72857 8.43158 2.63348 6.87202 4.19102C5.31111 5.74964 4.40325 7.84479 4.33345 10.0495C4.26364 12.2543 5.03716 14.4027 6.49635 16.0569C7.95555 17.7111 9.99061 18.7467 12.1868 18.9526C14.383 19.1585 16.5751 18.5192 18.3164 17.165L18.3629 17.2138L22.9584 21.8103C23.0591 21.911 23.1786 21.9908 23.3101 22.0453C23.4416 22.0998 23.5826 22.1278 23.7249 22.1278C23.8672 22.1278 24.0082 22.0998 24.1397 22.0453C24.2712 21.9908 24.3907 21.911 24.4914 21.8103C24.592 21.7097 24.6718 21.5902 24.7263 21.4587C24.7808 21.3272 24.8088 21.1862 24.8088 21.0439C24.8088 20.9015 24.7808 20.7606 24.7263 20.6291C24.6718 20.4976 24.592 20.3781 24.4914 20.2774L19.8948 15.6819C19.8789 15.6663 19.8627 15.6511 19.846 15.6364V15.6364ZM17.597 5.72393C18.2087 6.3257 18.6951 7.04262 19.0283 7.83333C19.3615 8.62404 19.5349 9.4729 19.5384 10.3309C19.5419 11.189 19.3754 12.0392 19.0487 12.8326C18.7219 13.626 18.2413 14.3469 17.6346 14.9536C17.0279 15.5603 16.307 16.0409 15.5136 16.3677C14.7202 16.6944 13.87 16.8608 13.0119 16.8574C12.1539 16.8539 11.305 16.6805 10.5143 16.3473C9.72363 16.0141 9.00671 15.5277 8.40494 14.916C7.20235 13.6937 6.53148 12.0457 6.53847 10.3309C6.54545 8.61621 7.22971 6.97371 8.44222 5.76121C9.65472 4.54871 11.2972 3.86444 13.0119 3.85746C14.7267 3.85048 16.3747 4.52134 17.597 5.72393Z" fill="#ffffff"/>
</svg>
